cl__1 = 1e+22;
Point(1) = {0, 0, 0, cl__1};
Point(2) = {1, 0, 0, cl__1};
Point(3) = {0, 1, 0, cl__1};
Point(4) = {0, 0, 1, cl__1};
Line(1) = {1, 2};
Line(2) = {1, 3};
Line(3) = {1, 4};
Line(4) = {2, 3};
Line(5) = {2, 4};
Line(6) = {3, 4};
Line Loop(1) = {6, -5, 4};
Plane Surface(1) = {1};
Line Loop(2) = {6, -3, 2};
Plane Surface(2) = {2};
Line Loop(3) = {5, -3, 1};
Plane Surface(3) = {3};
Line Loop(4) = {4, -2, 1};
Plane Surface(4) = {4};
Surface Loop(1) = {1, 2, 3, 4};
Volume(1) = {1};
